#!OML:ASF H:\Terrain\Patient Classification 1\Takeo\Monday\TakeoMonday.ASF
:FULLY-SPECIFIED
:DEGREES
33
root 10.143 16.8659 -24.476 -3.83093 -8.64215 2.06736
lowerback 5.90499 0.975261 0.0507279
upperback 3.31943 1.2936 -0.0924463
thorax 0.107548 0.645975 -0.196691
lowerneck -11.8233 4.18737 -0.70244
upperneck -4.40573 5.62876 -2.7398
head 0.643097 2.77247 -0.506155
rclavicle 3.16565e-014 3.97569e-015
rhumerus -20.3023 3.31174 -88.0254
rradius 23.3542
rwrist -5.18872
rhand -19.7375 17.6106
rfingers 7.12502
rthumb 6.5932 -12.2668
lclavicle 3.16565e-014 3.97569e-015
lhumerus -32.0367 18.2992 82.5081
lradius 27.1723
lwrist 17.8073
lhand -21.5224 20.0605
lfingers 7.12502
lthumb 4.86996 49.9845
rfemur -9.02305 4.56089 20.2604
rtibia 70.3693
rfoot 5.97209 -12.3378
rtoes -17.3773
lfemur -13.9304 -0.584382 -29.6451
ltibia 32.3332
lfoot -15.1445 10.8904
ltoes 4.5426
34
root 10.1435 16.8841 -24.3128 -3.91945 -8.1217 2.52972
lowerback 5.85621 0.78181 -0.377551
upperback 3.24248 1.01489 -0.209743
thorax 0.0491829 0.502347 -0.0611554
lowerneck -11.685 4.19811 -0.827078
upperneck -4.1965 5.6618 -2.52697
head 0.676202 2.79256 -0.419041
rclavicle 2.24875e-014 4.37326e-015
rhumerus -21.3135 3.12564 -88.0136
rradius 23.4158
rwrist -6.0359
rhand -19.628 16.9653
rfingers 7.12502
rthumb 6.69889 -12.9087
lclavicle 2.24875e-014 4.37326e-015
lhumerus -31.7248 16.5846 83.3004
lradius 28.5155
lwrist 19.1917
lhand -21.616 20.919
lfingers 7.12502
lthumb 4.77955 50.8451
rfemur -10.3495 4.41657 19.6179
rtibia 71.2193
rfoot 4.45248 -13.6285
rtoes -14.5613
lfemur -12.9915 -0.808511 -30.2997
ltibia 31.8227
lfoot -15.365 10.8423
ltoes 4.63439
35
root 10.1362 16.9006 -24.152 -4.09677 -7.34104 2.74254
lowerback 5.89104 0.510346 -0.711074
upperback 3.27475 0.637729 -0.14218
thorax 0.0595016 0.309071 0.216478
lowerneck -11.4387 4.22106 -0.776176
upperneck -4.24724 5.6819 -2.82684
head 0.630845 2.79954 -0.524835
rclavicle -2.08227e-014 4.77083e-015
rhumerus -22.1225 2.60953 -87.7059
rradius 23.3538
rwrist -6.31565
rhand -19.4184 16.552
rfingers 7.12502
rthumb 6.90123 -13.3155
lclavicle -2.08227e-014 4.77083e-015
lhumerus -31.2479 15.1018 84.256
lradius 29.8621
lwrist 20.5105
lhand -22.0473 21.9389
lfingers 7.12502
lthumb 4.36308 51.8739
rfemur -11.4217 4.05738 19.3102
rtibia 71.8847
rfoot 3.11688 -14.6202
rtoes -13.1064
lfemur -11.9244 -1.17344 -30.6848
ltibia 31.3537
lfoot -15.4835 10.7246
ltoes 3.79381
36
root 10.1272 16.9077 -24.0001 -4.09685 -6.76747 2.17635
lowerback 5.88926 0.301506 -0.293584
upperback 3.36297 0.382298 0.14607
thorax 0.154151 0.183948 0.293031
lowerneck -11.4136 4.24879 -0.862836
upperneck -4.33842 5.72625 -2.92422
head 0.598426 2.82275 -0.540665
rclavicle 9.56651e-015 -3.18055e-015
rhumerus -22.8116 2.15749 -87.4251
rradius 22.745
rwrist -5.23315
rhand -20.5575 17.7626
rfingers 7.12502
rthumb 5.80156 -12.138
lclavicle 9.56651e-015 -3.18055e-015
lhumerus -30.4664 13.9505 85.1241
lradius 30.9832
lwrist 20.9375
lhand -22.1782 23.1333
lfingers 7.12502
lthumb 4.23672 53.0709
rfemur -12.5852 4.03455 19.9041
rtibia 72.3604
rfoot 1.51218 -15.583
rtoes -12.9406
lfemur -11.0337 -1.47769 -30.2032
ltibia 30.9771
lfoot -15.739 10.6157
ltoes 2.23461
37
root 10.1189 16.9031 -23.8577 -3.95601 -6.2612 1.94277
lowerback 5.83541 0.154059 -0.184058
upperback 3.41511 0.19231 0.292534
thorax 0.238935 0.0889861 0.392806
lowerneck -11.7419 4.24562 -0.977252
upperneck -4.17843 5.74531 -2.8503
head 0.698345 2.82986 -0.489124
rclavicle 8.99501e-015 -4.37326e-015
rhumerus -23.6438 2.28764 -87.3618
rradius 22.9839
rwrist -5.68614
rhand -21.2091 17.1883
rfingers 7.12502
rthumb 5.17244 -12.7286
lclavicle 8.99501e-015 -4.37326e-015
lhumerus -29.5498 12.7676 85.8839
lradius 32.0358
lwrist 21.4721
lhand -21.9871 23.5817
lfingers 7.12502
lthumb 4.42126 53.5156
rfemur -14.04 4.16587 20.0896
rtibia 72.7023
rfoot 0.0640253 -16.6706
rtoes -11.6838
lfemur -10.4436 -1.79585 -30.0735
ltibia 30.6972
lfoot -16.0306 10.5974
ltoes 0.707499
38
root 10.1085 16.9174 -23.7213 -3.81417 -5.65836 2.06556
lowerback 5.8347 0.0504522 -0.425194
upperback 3.45567 0.0431187 0.280584
thorax 0.282244 0.0110365 0.524013
lowerneck -12.1521 4.16734 -0.734815
upperneck -3.93478 5.62509 -3.05842
head 0.859903 2.75605 -0.586375
rclavicle -2.36057e-014 -7.15625e-015
rhumerus -24.4104 1.91939 -87.2278
rradius 23.0073
rwrist -6.11198
rhand -21.3254 17.1763
rfingers 7.12502
rthumb 5.06019 -12.7433
lclavicle -2.36057e-014 -7.15625e-015
lhumerus -28.6088 11.3375 86.5341
lradius 33.0315
lwrist 22.4037
lhand -21.7752 22.8548
lfingers 7.12502
lthumb 4.62587 52.7843
rfemur -15.5909 4.20733 19.9007
rtibia 72.8764
rfoot -1.35899 -17.8173
rtoes -9.49219
lfemur -9.98161 -2.32537 -30.2858
ltibia 30.4892
lfoot -16.4791 10.5348
ltoes 1.1191
39
root 10.1004 16.949 -23.5702 -3.769 -5.08714 1.92672
lowerback 5.87967 -0.0220035 -0.279418
upperback 3.43888 -0.0460549 0.243315
thorax 0.240881 -0.0308641 0.408921
lowerneck -12.3169 4.07243 -0.385329
upperneck -3.72129 5.46366 -3.17949
head 0.970782 2.66493 -0.68327
rclavicle -2.93207e-015 7.95139e-016
rhumerus -25.2787 0.723881 -87.0201
rradius 22.7695
rwrist -6.33747
rhand -21.5292 18.0786
rfingers 7.12502
rthumb 4.86338 -11.8456
lclavicle -2.93207e-015 7.95139e-016
lhumerus -28.048 9.64007 87.0092
lradius 34.3295
lwrist 23.146
lhand -21.6407 23.57
lfingers 7.12502
lthumb 4.75571 53.4967
rfemur -16.8086 4.35999 19.9959
rtibia 72.7628
rfoot -2.95199 -18.5525
rtoes -8.44852
lfemur -9.33472 -2.83074 -30.2156
ltibia 30.2536
lfoot -17.0173 10.4169
ltoes 2.16527
40
root 10.0925 16.9674 -23.411 -3.79725 -4.57712 1.82217
lowerback 5.95774 -0.138707 -0.264828
upperback 3.33609 -0.199709 0.343141
thorax 0.0935611 -0.107729 0.51213
lowerneck -12.3137 3.97952 -0.419506
upperneck -3.32935 5.35727 -3.19732
head 1.09601 2.60646 -0.683753
rclavicle 4.77083e-015 -1.59028e-015
rhumerus -26.423 0.232295 -86.7343
rradius 22.7866
rwrist -7.45175
rhand -21.7006 18.7614
rfingers 7.12502
rthumb 4.6979 -11.1665
lclavicle 4.77083e-015 -1.59028e-015
lhumerus -27.7755 8.33731 87.5682
lradius 35.7689
lwrist 23.7354
lhand -21.505 25.1372
lfingers 7.12502
lthumb 4.88677 55.0609
rfemur -17.7807 4.68982 20.0093
rtibia 72.4479
rfoot -4.21103 -18.6411
rtoes -8.85955
lfemur -8.59688 -3.0678 -30.197
ltibia 29.9965
lfoot -17.1633 10.3185
ltoes 2.13495
41
root 10.0814 16.9567 -23.264 -3.90931 -4.06501 2.17412
lowerback 6.12596 -0.256508 -0.858031
upperback 3.30851 -0.386578 0.446828
thorax -0.0209113 -0.208883 0.963264
lowerneck -12.3737 3.8921 -0.826429
upperneck -3.04139 5.30286 -3.02552
head 1.18113 2.58194 -0.560388
rclavicle -7.40473e-015 4.37326e-015
rhumerus -27.4111 0.397736 -86.4184
rradius 22.8727
rwrist -8.67909
rhand -21.3343 16.9749
rfingers 7.12502
rthumb 5.05157 -12.9448
lclavicle -7.40473e-015 4.37326e-015
lhumerus -27.3449 7.50694 88.1733
lradius 37.0316
lwrist 23.9906
lhand -21.1029 23.9324
lfingers 7.12502
lthumb 5.27504 53.8467
rfemur -18.7053 4.94894 19.5092
rtibia 72.021
rfoot -5.04642 -18.5943
rtoes -10.5896
lfemur -7.85173 -3.15246 -30.6564
ltibia 29.7779
lfoot -17.0744 10.047
ltoes 2.10419
42
root 10.0722 16.9381 -23.1167 -3.87195 -3.56529 2.54337
lowerback 6.03787 -0.315829 -1.3091
upperback 3.34994 -0.487905 0.369397
thorax 0.0765876 -0.265291 1.14203
lowerneck -12.2278 3.84273 -0.892452
upperneck -3.25441 5.23555 -2.81239
head 1.07701 2.55844 -0.491486
rclavicle -1.16786e-014 -3.18055e-015
rhumerus -28.2659 0.0515751 -86.2715
rradius 22.9314
rwrist -9.00468
rhand -20.8108 13.7042
rfingers 7.12502
rthumb 5.55702 -16.2029
lclavicle -1.16786e-014 -3.18055e-015
lhumerus -26.828 6.22658 88.584
lradius 38.3638
lwrist 24.3111
lhand -20.8685 21.1103
lfingers 7.12502
lthumb 5.50131 51.0189
rfemur -19.8065 5.19409 18.9431
rtibia 71.4213
rfoot -5.86462 -18.4847
rtoes -11.9691
lfemur -7.25211 -3.26304 -31.1284
ltibia 29.6359
lfoot -17.221 9.7365
ltoes 2.1636
